# xmcd CD database file
#
# Track frame offsets:
#	150
#	26062
#	61199
#	99856
#	128013
#	158042
#	180809
#	214291
#	255233
#	279750
#	299524
#	327226
#
# Disc length: 4797 seconds
#
# Revision: 0
# Processed by: cddbd v1.5.1PL0 Copyright (c) Steve Scherf et al.
# Submitted via: CDex 1.51
#
DISCID=9a12bb0c
DTITLE=Miles Davis Quintet - Prestige Sessions Vol 1
DYEAR=1956
DGENRE=Jazz
TTITLE0=In Your Own Sweet Way
TTITLE1=Diane
TTITLE2=Trane's Blues
TTITLE3=Something I Dreamed Last Night
TTITLE4=It Could Happen To You
TTITLE5=Woody'n You
TTITLE6=Ahmad's Blues
TTITLE7=Surrey With The Fringe On Top
TTITLE8=It Never Entered My Mind
TTITLE9=When I Fall In Love
TTITLE10=Salt Peanuts
TTITLE11=Four
EXTD=YEAR: 1956
EXTT0=
EXTT1=
EXTT2=
EXTT3=
EXTT4=
EXTT5=
EXTT6=
EXTT7=
EXTT8=
EXTT9=
EXTT10=
EXTT11=
PLAYORDER=
